<?xml version="1.0" encoding="iso-8859-1"?>
<!-- Generator: Adobe Illustrator 19.0.0, SVG Export Plug-In . SVG Version: 6.00 Build 0)  -->
<svg version="1.1" id="Capa_1" xmlns="http://www.w3.org/2000/svg" xmlns:xlink="http://www.w3.org/1999/xlink" x="0px" y="0px"
	 viewBox="0 0 511.999 511.999" style="enable-background:new 0 0 511.999 511.999;" xml:space="preserve">
<g>
	<g>
		<path d="M273.869,346.504c-6.576,0-13.003,1.885-18.542,5.329c-5.539-3.444-11.966-5.329-18.542-5.329
			c-19.593,0-35.534,16.235-35.534,36.19c0,11.32,8.173,24.948,24.986,41.666c11.349,11.284,22.542,19.872,23.013,20.232
			c1.794,1.371,3.937,2.058,6.079,2.058c2.143,0,4.285-0.687,6.079-2.058c0.471-0.36,11.664-8.947,23.013-20.232
			c16.813-16.718,24.986-30.347,24.986-41.666C309.404,362.738,293.463,346.504,273.869,346.504z M255.323,423.841
			c-17.403-14.424-34.054-32.945-34.054-41.147c0-8.916,6.961-16.171,15.516-16.171c4.258,0,8.231,1.765,11.185,4.968
			c1.896,2.055,4.563,3.223,7.358,3.223c2.795,0,5.462-1.168,7.358-3.223c2.955-3.203,6.928-4.968,11.186-4.968
			c8.553,0,15.514,7.255,15.514,16.171C289.385,390.876,272.728,409.402,255.323,423.841z"/>
	</g>
</g>
<g>
	<g>
		<path d="M242.07,269.678c-6.493-5.6-14.233-8.041-21.811-6.87c-47.042,7.269-69.469,44.04-70.401,45.603
			c-2.832,4.747-1.279,10.892,3.468,13.724c4.748,2.834,10.893,1.278,13.724-3.468c0.18-0.301,18.429-30.227,56.266-36.074
			c2.27-0.344,4.531,1.257,5.68,2.246c3.538,3.053,5.994,8.126,5.97,12.337c-0.023,4.044-2.585,7.608-6.375,8.867
			c-18.658,6.204-31.509,13.571-38.198,21.895l-38.326,47.701c-3.953,4.921-9.41,7.644-14.938,7.456
			c-2.384-0.079-4.074-0.848-5.65-2.569c-9.628-10.521-7.722-44.806-6.908-59.446c0.126-2.262,0.239-4.309,0.315-6.082
			c3.923-90.44,39.19-116.201,94.824-128.451l3.443-0.759c5.399-1.189,8.811-6.529,7.621-11.928
			c-1.189-5.399-6.533-8.813-11.928-7.621l-3.442,0.759c-36.981,8.143-62.337,22.118-79.796,43.979
			c-18.937,23.713-28.699,56.491-30.722,103.154c-0.074,1.702-0.184,3.666-0.304,5.837c-1.543,27.74-2.006,58.629,12.126,74.072
			c5.193,5.674,12.025,8.807,19.757,9.063c0.403,0.014,0.806,0.021,1.207,0.021c0.701,0,1.399-0.021,2.095-0.062
			c0.247,16.297,3.953,31.953,11.044,46.555c1.731,3.565,5.298,5.639,9.01,5.639c1.467,0,2.958-0.323,4.365-1.008
			c4.975-2.414,7.048-8.403,4.632-13.376c-6.01-12.375-9.057-25.681-9.057-39.552v-5.554c2.888-2.115,5.551-4.653,7.908-7.588
			l38.325-47.7c4.06-5.052,14.597-10.678,28.91-15.438c11.935-3.97,20.003-15.121,20.077-27.749
			C255.042,287.177,250.092,276.597,242.07,269.678z"/>
	</g>
</g>
<g>
	<g>
		<path d="M184.652,463.717l-0.259-0.274c-3.778-4.036-10.113-4.245-14.148-0.467c-4.036,3.778-4.245,10.112-0.467,14.148
			l0.429,0.452c1.965,2.049,4.592,3.08,7.224,3.08c2.492,0,4.988-0.925,6.928-2.787C188.348,474.042,188.48,467.706,184.652,463.717
			z"/>
	</g>
</g>
<g>
	<g>
		<path d="M344.222,185.976c-14.537-9.255-30.463-15.911-47.331-19.783c-5.387-1.235-10.759,2.129-11.995,7.517
			c-1.237,5.388,2.128,10.758,7.516,11.994c14.638,3.36,28.453,9.134,41.06,17.159c1.667,1.061,3.526,1.566,5.365,1.566
			c3.308,0,6.545-1.639,8.453-4.635C350.258,195.132,348.885,188.945,344.222,185.976z"/>
	</g>
</g>
<g>
	<g>
		<path d="M372.257,209.08l-0.529-0.552c-3.839-3.978-10.176-4.089-14.153-0.249c-3.978,3.839-4.089,10.176-0.249,14.153
			l0.448,0.465c1.967,2.063,4.603,3.101,7.244,3.101c2.481,0,4.97-0.918,6.906-2.768
			C375.923,219.415,376.074,213.079,372.257,209.08z"/>
	</g>
</g>
<g>
	<g>
		<path d="M394.672,239.279c-2.719-4.815-8.823-6.513-13.637-3.794c-4.815,2.719-6.512,8.823-3.794,13.637
			c10.1,17.884,10.902,38.853,10.902,64.407v30.503c0,35.219-8.067,84.687-46.493,120.351c-7.04,6.533-20.565,13.147-39.117,19.132
			c-0.659,0.179-1.311,0.353-1.961,0.526c-4.399,0.897-8.905-0.072-12.597-2.768c-4.171-3.047-6.556-7.758-6.544-12.926
			c0.016-7.118,4.62-13.261,11.458-15.285c17.768-5.261,30.534-11.416,37.943-18.292c26.426-24.527,25.059-62.489,23.852-95.982
			c-0.26-7.22-0.505-14.037-0.505-20.721c0-0.715-0.078-1.41-0.22-2.083c2.066-3.832,3.442-7.803,4.114-11.943
			c3.027-18.673-9.094-34.456-18.833-47.138c-3.85-5.014-9.667-12.589-9.722-15.277c-0.001-5.527-4.482-10.008-10.009-10.008
			c-5.527,0-10.009,4.482-10.009,10.009c0,9.415,6.425,17.782,13.864,27.468c7.778,10.128,16.593,21.606,14.95,31.743
			c-1.068,6.589-6.646,13.335-16.578,20.049c-4.579,3.096-5.782,9.319-2.687,13.898c1.935,2.861,5.089,4.404,8.301,4.404
			c1.93,0,3.879-0.557,5.597-1.719c0.555-0.375,1.084-0.756,1.622-1.134c0.037,1.059,0.074,2.122,0.112,3.172
			c1.104,30.627,2.244,62.296-17.464,80.589c-4.984,4.626-15.642,9.517-30.008,13.771c-15.393,4.558-25.757,18.397-25.793,34.435
			c-0.019,8.188,2.643,15.861,7.486,22.087c-11.469,1.541-18.362,1.593-18.474,1.593c-14.723,0-29.336-3.606-42.258-10.428
			c-4.888-2.58-10.942-0.71-13.525,4.18c-2.58,4.889-0.71,10.943,4.179,13.525c15.792,8.336,33.636,12.742,51.604,12.742
			c0.948,0,23.017-0.102,54.971-8.527c0.678-0.156,1.353-0.347,2.028-0.542c0.207-0.056,0.41-0.109,0.62-0.166
			c0.052-0.014,0.1-0.035,0.152-0.05c0.09-0.028,0.182-0.047,0.272-0.076c21.728-6.991,37.474-14.925,46.802-23.582
			c34.603-32.115,52.894-78.806,52.894-135.024v-30.503C408.162,285.974,407.148,261.368,394.672,239.279z"/>
	</g>
</g>
<g>
	<g>
		<path d="M255.425,0c-11.518,0-22.447,2.539-32.287,7.056c-18.108-12.243-42.902-8.162-56.071,9.551
			c-13.541,18.217-9.737,44.055,8.478,57.595c0.712,0.53,1.472,0.946,2.259,1.26c-0.021,0.738-0.056,1.471-0.056,2.214v12.303
			c0,42.831,34.846,77.677,77.677,77.677s77.677-34.846,77.677-77.677V77.677C333.101,34.846,298.256,0,255.425,0z M183.133,28.55
			c4.794-6.451,12.592-9.379,20.04-8.299c-9.478,8.631-16.8,19.578-21.105,31.927C177.719,45.035,177.845,35.665,183.133,28.55z
			 M255.425,147.637c-29.61,0-54.067-22.438-57.287-51.203c15.057-1.132,47.653-5.803,69.281-25.037
			c14.957,16.782,35.408,22.58,45.364,24.488C309.814,124.914,285.224,147.637,255.425,147.637z M276.975,50.654
			c-1.695-2.91-4.739-4.773-8.103-4.957c-3.356-0.181-6.593,1.336-8.595,4.044c-14.993,20.276-47.562,25.348-62.478,26.615
			c0.708-31.183,26.276-56.337,57.625-56.337c31.052,0,56.436,24.679,57.601,55.452C303.33,73.101,286.376,66.791,276.975,50.654z"
			/>
	</g>
</g>
<g>
</g>
<g>
</g>
<g>
</g>
<g>
</g>
<g>
</g>
<g>
</g>
<g>
</g>
<g>
</g>
<g>
</g>
<g>
</g>
<g>
</g>
<g>
</g>
<g>
</g>
<g>
</g>
<g>
</g>
</svg>
