<?xml version="1.0" encoding="iso-8859-1"?>
<!-- Generator: Adobe Illustrator 19.0.0, SVG Export Plug-In . SVG Version: 6.00 Build 0)  -->
<svg version="1.1" id="Layer_1" xmlns="http://www.w3.org/2000/svg" xmlns:xlink="http://www.w3.org/1999/xlink" x="0px" y="0px"
	 viewBox="0 0 512.001 512.001" style="enable-background:new 0 0 512.001 512.001;" xml:space="preserve">
<g>
	<g>
		<path d="M398.6,273.359l-34.761-12.435l0.79-2.31c1.412-4.128-0.707-8.632-4.787-10.176l-32.288-12.223
			c-3.768-1.427-8.017,0.142-9.954,3.681l-2.052,3.752l-11.545-4.129v-12.448c14.994-11.397,25.429-28.476,28.089-48.001
			c18.221-0.067,33.023-14.907,33.023-33.142c0-9.255-3.817-17.631-9.953-23.65V95.963C355.159,43.049,312.111,0,259.198,0
			c-52.914,0-95.963,43.049-95.963,95.963v26.317c-6.136,6.019-9.952,14.394-9.952,23.649c0,18.235,14.803,33.075,33.023,33.142
			c2.66,19.525,13.095,36.604,28.088,48.001v12.455l-23.532,8.418l-1.717-5.241c-0.682-2.083-2.181-3.8-4.153-4.756
			c-1.973-0.958-4.249-1.073-6.307-0.319l-29.462,10.779c-3.365,1.231-5.519,4.53-5.29,8.107l0.512,8.036l-24.44,8.742
			c-3.372,1.042-30.472,10.265-37.654,39.48c-6.495,26.422-20.411,128.714-20.993,133.006c-0.135,0.946-3.148,23.353,9.477,37.897
			c6.795,7.83,16.454,11.799,28.708,11.799h59.628l0.571,8.958c0.272,4.255,3.803,7.569,8.068,7.569h98.417
			c0.006-0.001,0.015,0,0.022,0c4.466,0,8.084-3.618,8.084-8.084c0-1.093-0.216-2.134-0.609-3.085l-1.756-5.358h7.835
			c9.402,10.543,22.637,16.527,36.936,16.527h126.228c4.466,0,8.084-3.618,8.084-8.084V346.544
			C451.05,293.38,400.822,274.181,398.6,273.359z M99.542,479.304c-7.439,0-12.823-2.023-16.461-6.186
			c-6.469-7.403-6.318-20.624-5.71-25.117c0.143-1.055,14.388-105.776,20.679-131.371c5.226-21.258,25.878-27.638,26.716-27.888
			c0.166-0.047,0.331-0.1,0.494-0.158l20.255-7.245l8.385,131.495h-12.679c-4.465,0-8.084,3.618-8.084,8.084
			c0,4.466,3.62,8.084,8.084,8.084h13.71l3.208,50.302H99.542z M339.238,130.598c0.38,0.181,0.752,0.376,1.117,0.584
			c0.097,0.055,0.193,0.111,0.289,0.168c0.344,0.206,0.679,0.425,1.007,0.653c0.095,0.066,0.191,0.129,0.285,0.198
			c4.243,3.089,7.008,8.091,7.008,13.728c0.001,9.089-7.181,16.534-16.167,16.957v-33.902c0.078,0.003,0.156,0.004,0.234,0.01
			c0.387,0.024,0.77,0.061,1.149,0.111c0.123,0.016,0.247,0.026,0.37,0.044c1.053,0.159,2.075,0.414,3.055,0.759
			c0.03,0.011,0.058,0.023,0.088,0.033c0.453,0.162,0.896,0.344,1.329,0.542C339.081,130.521,339.159,130.56,339.238,130.598z
			 M185.62,162.886c-8.987-0.422-16.168-7.868-16.168-16.957c0-5.64,2.767-10.642,7.013-13.731c0.091-0.066,0.183-0.127,0.274-0.191
			c0.331-0.231,0.668-0.452,1.015-0.659c0.095-0.057,0.19-0.112,0.286-0.166c0.364-0.208,0.737-0.403,1.119-0.585
			c0.079-0.038,0.157-0.077,0.237-0.113c0.433-0.198,0.874-0.379,1.326-0.54c0.031-0.011,0.061-0.025,0.093-0.036
			c0.98-0.345,2.002-0.598,3.054-0.758c0.123-0.018,0.248-0.029,0.371-0.045c0.379-0.05,0.762-0.087,1.148-0.111
			c0.078-0.004,0.156-0.005,0.234-0.01V162.886z M188.344,104.074c-1.732,1.535-2.724,3.737-2.724,6.051v2.668
			c-0.17,0.004-0.341,0.017-0.511,0.024c-0.223,0.009-0.446,0.018-0.668,0.031c-0.352,0.021-0.705,0.049-1.055,0.081
			c-0.175,0.016-0.349,0.03-0.523,0.05c-0.428,0.045-0.853,0.101-1.277,0.163c-0.092,0.013-0.183,0.025-0.275,0.039
			c-0.64,0.099-1.277,0.209-1.907,0.345V95.963c0-43.999,35.796-79.794,79.794-79.794c43.997,0,79.792,35.796,79.792,79.794v17.561
			c-0.631-0.136-1.267-0.246-1.907-0.344c-0.091-0.014-0.182-0.026-0.274-0.039c-0.425-0.061-0.85-0.117-1.278-0.163
			c-0.174-0.018-0.348-0.033-0.523-0.05c-0.351-0.031-0.703-0.06-1.055-0.081c-0.222-0.013-0.445-0.023-0.668-0.031
			c-0.17-0.006-0.34-0.02-0.511-0.024v-2.668c0-2.044-0.774-4.011-2.165-5.506l-25.737-27.666c-1.232-1.325-2.818-2.148-4.488-2.447
			c-2.147-0.384-4.435,0.099-6.295,1.495c-0.36,0.271-36.531,27.016-84.173,27.016c-5.103,0-10.229-0.309-15.236-0.917
			C192.383,101.821,190.077,102.539,188.344,104.074z M201.788,169.22v-47.275v-2.988c2.704,0.153,5.419,0.231,8.127,0.231
			c41.724,0,74.727-17.838,87.837-26.15l18.856,20.268v8.639v47.275c0,24.318-15.452,45.096-37.053,53.032
			c-0.018,0.006-0.038,0.014-0.056,0.02c-1.718,0.63-3.476,1.178-5.268,1.641c-0.003,0.001-0.006,0.001-0.01,0.002
			c-0.814,0.21-1.637,0.397-2.465,0.57c-0.176,0.037-0.352,0.073-0.529,0.108c-0.746,0.149-1.496,0.284-2.252,0.403
			c-0.112,0.017-0.223,0.039-0.335,0.056c-0.847,0.128-1.702,0.236-2.561,0.327c-0.198,0.021-0.397,0.036-0.595,0.055
			c-0.672,0.064-1.347,0.114-2.025,0.154c-0.243,0.014-0.486,0.029-0.73,0.04c-0.861,0.039-1.726,0.066-2.596,0.066h-1.87
			c-0.871,0-1.735-0.027-2.597-0.066c-0.244-0.011-0.486-0.026-0.729-0.04c-0.678-0.04-1.354-0.091-2.025-0.154
			c-0.198-0.018-0.398-0.034-0.597-0.055c-0.858-0.091-1.712-0.197-2.559-0.327c-0.114-0.017-0.227-0.039-0.342-0.057
			c-0.753-0.12-1.502-0.253-2.245-0.402c-0.179-0.036-0.357-0.072-0.536-0.11c-0.825-0.174-1.644-0.359-2.454-0.568
			c-0.006-0.001-0.013-0.003-0.019-0.004c-1.788-0.461-3.541-1.009-5.257-1.636c-0.024-0.009-0.048-0.017-0.072-0.026
			C217.236,214.31,201.788,193.536,201.788,169.22z M287.832,236.388v15.613l-28.635,21.855l-28.635-21.855v-15.613
			c0.833,0.344,1.677,0.658,2.522,0.97c0.094,0.035,0.185,0.072,0.278,0.107c0.943,0.345,1.895,0.662,2.851,0.967
			c0.192,0.061,0.38,0.129,0.573,0.189c0.872,0.269,1.752,0.513,2.633,0.749c0.285,0.077,0.565,0.162,0.85,0.235
			c0.81,0.207,1.627,0.387,2.444,0.566c0.363,0.08,0.722,0.169,1.086,0.243c0.764,0.154,1.535,0.282,2.305,0.413
			c0.421,0.071,0.84,0.154,1.264,0.218c0.748,0.113,1.5,0.198,2.253,0.287c0.45,0.054,0.896,0.12,1.347,0.166
			c0.803,0.08,1.609,0.13,2.417,0.184c0.405,0.027,0.805,0.069,1.213,0.088c1.217,0.06,2.438,0.093,3.663,0.093h1.87
			c1.224,0,2.446-0.032,3.663-0.093c0.409-0.021,0.812-0.063,1.218-0.089c0.805-0.054,1.61-0.103,2.411-0.184
			c0.455-0.045,0.903-0.112,1.355-0.166c0.75-0.089,1.5-0.174,2.245-0.286c0.426-0.065,0.846-0.148,1.27-0.22
			c0.768-0.129,1.537-0.258,2.299-0.412c0.365-0.074,0.724-0.164,1.088-0.244c0.817-0.179,1.634-0.359,2.444-0.565
			c0.286-0.073,0.566-0.158,0.85-0.234c0.882-0.236,1.761-0.48,2.633-0.749c0.193-0.059,0.382-0.127,0.573-0.189
			c0.956-0.305,1.908-0.622,2.851-0.967c0.094-0.034,0.185-0.072,0.279-0.107C286.155,237.045,287,236.732,287.832,236.388z
			 M214.433,256.684c0.192,2.261,1.318,4.353,3.14,5.742l36.72,28.025c1.448,1.105,3.177,1.658,4.904,1.658s3.457-0.553,4.904-1.658
			l36.72-28.025c1.822-1.392,2.949-3.484,3.14-5.748l3.727,1.333l-71.001,129.793l-40.79-124.489L214.433,256.684z M175.395,495.832
			l-14.942-234.316l15.932-5.829l53.092,162.032l1.873,5.716c0,0,0,0,0,0.001l23.72,72.396H175.395z M266.214,477.915
			l-16.027-48.913h16.027V477.915z M316.738,495.832c-10.582,0-20.311-4.852-26.695-13.312c-0.015-0.021-0.032-0.038-0.047-0.057
			c-0.128-0.166-0.263-0.327-0.403-0.482c-0.047-0.052-0.094-0.104-0.142-0.156c-0.127-0.135-0.261-0.262-0.397-0.387
			c-0.065-0.06-0.129-0.121-0.196-0.179c-0.127-0.11-0.26-0.212-0.393-0.314c-0.079-0.059-0.155-0.12-0.236-0.176
			c-0.134-0.094-0.273-0.18-0.412-0.266c-0.083-0.051-0.165-0.104-0.249-0.151c-0.147-0.083-0.299-0.158-0.451-0.232
			c-0.081-0.039-0.16-0.08-0.241-0.116c-0.158-0.07-0.321-0.133-0.485-0.193c-0.081-0.03-0.161-0.061-0.243-0.088
			c-0.162-0.054-0.326-0.099-0.492-0.142c-0.091-0.024-0.181-0.05-0.272-0.07c-0.152-0.034-0.306-0.061-0.461-0.087
			c-0.113-0.018-0.225-0.038-0.338-0.052c-0.135-0.016-0.269-0.027-0.406-0.037c-0.14-0.01-0.279-0.018-0.419-0.022
			c-0.055-0.001-0.109-0.009-0.164-0.009h-1.213v-50.302h18.187h16.168c18.425,0,33.415,14.989,33.415,33.414
			C350.153,480.841,335.164,495.832,316.738,495.832z M389.74,495.832v-112.64c0-4.466-3.618-8.084-8.084-8.084
			c-4.466,0-8.084,3.618-8.084,8.084v112.64h-20.236c8.06-8.82,12.985-20.553,12.985-33.416c0-27.34-22.243-49.582-49.583-49.582
			h-4.858l20.78-60.745c1.444-4.225-0.808-8.821-5.033-10.266c-4.222-1.44-8.821,0.808-10.266,5.033l-22.57,65.978h-49.901
			l-0.866-2.642l-0.432-1.318l84.816-155.045l18.39,6.961l-22.046,64.456c-1.444,4.224,0.808,8.82,5.034,10.265
			c4.219,1.44,8.82-0.807,10.265-5.034l18.556-54.252l34.483,12.334c2.201,0.836,41.792,16.493,41.792,57.983v149.289H389.74z"/>
	</g>
</g>
<g>
</g>
<g>
</g>
<g>
</g>
<g>
</g>
<g>
</g>
<g>
</g>
<g>
</g>
<g>
</g>
<g>
</g>
<g>
</g>
<g>
</g>
<g>
</g>
<g>
</g>
<g>
</g>
<g>
</g>
</svg>
