<?xml version="1.0" encoding="iso-8859-1"?>
<!-- Generator: Adobe Illustrator 19.0.0, SVG Export Plug-In . SVG Version: 6.00 Build 0)  -->
<svg version="1.1" id="Capa_1" xmlns="http://www.w3.org/2000/svg" xmlns:xlink="http://www.w3.org/1999/xlink" x="0px" y="0px"
	 viewBox="0 0 459.743 459.743" style="enable-background:new 0 0 459.743 459.743;" xml:space="preserve">
<g>
	<g>
		<path d="M459.608,273.673c-0.223-1.201-0.718-2.335-1.447-3.315c-1.04-1.12-77.6-103.92-126.24-185.36v0
			c-1.647-2.777-4.803-4.292-8-3.84c-57.384,5.134-115.175,3.442-172.16-5.04h-0.96c-2.95-0.162-5.748,1.314-7.28,3.84
			c-0.88,1.52-90.72,150.48-140.72,193.44c-3.358,2.871-3.753,7.921-0.881,11.279c1.502,1.757,3.69,2.778,6.001,2.801h19.36v61.52
			c-0.021,4.124,3.097,7.588,7.2,8l267.44,26.64h0.8c4.18,0.013,7.666-3.193,8-7.36l126.48-35.44c3.562-0.996,5.977-4.304,5.84-8
			v-48l10.16-1.84C457.545,282.192,460.414,278.017,459.608,273.673z M163.921,178.438c11.92,54.24,29.6,120,50.48,152l-50.64-4.64
			L163.921,178.438z M173.201,145.478l0.16,0.08c27.36,50.64,70.4,122.32,114.24,164.24c1.747,1.675,4.159,2.47,6.56,2.16v26.24
			l-56.96-5.6C214.721,320.038,189.361,225.958,173.201,145.478z M35.681,271.718l0.08,0.24h-8c40-42.56,93.36-124.88,117.2-163.2
			c-8,43.92-34.16,169.44-70.16,208l-31.36-3.04v-34C43.443,275.392,40.006,271.848,35.681,271.718z M147.761,173.798v150.4
			l-53.84-5.52C117.441,285.798,135.761,223.798,147.761,173.798z M294.641,366.758l-250.88-24.64v-12.32l33.68,3.28l40,3.92
			l68,6.64l48.96,4.8l60.24,5.92V366.758z M426.961,327.318l-116.48,32.32v-50.56l116.64-21.36L426.961,327.318z M295.921,295.318
			c-56-55.52-112-163.36-131.12-201.28c51.821,6.566,104.189,7.665,156.24,3.28c40,66.08,96,144,116.64,172L295.921,295.318z"/>
	</g>
</g>
<g>
</g>
<g>
</g>
<g>
</g>
<g>
</g>
<g>
</g>
<g>
</g>
<g>
</g>
<g>
</g>
<g>
</g>
<g>
</g>
<g>
</g>
<g>
</g>
<g>
</g>
<g>
</g>
<g>
</g>
</svg>
