<?xml version="1.0" encoding="iso-8859-1"?>
<!-- Generator: Adobe Illustrator 19.0.0, SVG Export Plug-In . SVG Version: 6.00 Build 0)  -->
<svg version="1.1" id="Capa_1" xmlns="http://www.w3.org/2000/svg" xmlns:xlink="http://www.w3.org/1999/xlink" x="0px" y="0px"
	 viewBox="0 0 512 512" style="enable-background:new 0 0 512 512;" xml:space="preserve">
<g>
	<g>
		<path d="M486.001,165.381V86.555c0-27.57-22.43-50-50-50H287.934V10c0-5.522-4.478-10-10-10h-43.867c-5.522,0-10,4.478-10,10
			v26.555H76c-27.57,0-50,22.43-50,50v78.827C14.057,172.309,6,185.228,6,200v60c0,14.772,8.057,27.691,20,34.618V502
			c0,5.522,4.478,10,10,10h440c5.522,0,10-4.478,10-10V294.619c11.945-6.928,20.001-19.846,20.001-34.619v-60
			C506.001,185.227,497.945,172.309,486.001,165.381z M207.511,56.555h26.556c5.522,0,10-4.477,10-10V20h23.867v26.555
			c0,5.523,4.478,10,10,10h26.556v23.867h-26.556c-5.522,0-10,4.478-10,10v26.556h-23.867V90.422c0-5.522-4.478-10-10-10h-26.556
			V56.555z M46.001,136.977h55.953c5.522,0,10-4.477,10-10s-4.478-10-10-10H46.001V86.555c0-16.542,13.458-30,30-30h111.51v33.867
			c0,5.522,4.477,10,10,10h26.556v26.556c0,5.522,4.478,10,10,10h43.867c5.522,0,10-4.478,10-10v-26.556h26.556
			c5.522,0,10-4.478,10-10V56.555h111.511c16.542,0,30,13.458,30,30v30.422h-55.952c-5.522,0-10,4.478-10,10c0,5.522,4.478,10,10,10
			h55.952V160h-420V136.977z M426.001,180v80c0,11.028-8.973,20-20.001,20c-11.027,0-19.999-8.972-19.999-20v-80H426.001z
			 M366.001,180v80c0,11.028-8.973,20-20.001,20s-20-8.972-20-20v-80h0.001H366.001z M306.001,180v80c0,11.028-8.972,20-20,20
			s-20-8.972-20-20v-80H306.001z M246,180v80c0,11.028-8.972,20-20,20c-11.028,0-20-8.972-20-20v-80H246z M186,180v80
			c0,11.028-8.972,20-20,20c-11.028,0-20-8.972-20-20v-80H186z M126,180v80c0,11.028-8.972,20-20,20c-11.028,0-20-8.972-20-20v-80
			H126z M26.001,260v-60c0-11.028,8.972-20,20-20h20v80c0,11.028-8.972,20-20,20S26.001,271.028,26.001,260z M186,492H86V362
			c0-5.514,4.486-10,10-10h80c5.514,0,10,4.486,10,10V492z M466.001,492H206V362c0-16.542-13.458-30-30-30H96
			c-16.542,0-30,13.458-30,30v130H46.001V300c11.938,0,22.665-5.264,30-13.585c7.335,8.321,18.062,13.585,30,13.585
			s22.665-5.264,30-13.585c7.335,8.321,18.062,13.585,30,13.585c11.939,0,22.665-5.264,30-13.585
			c7.335,8.321,18.062,13.585,30,13.585c11.939,0,22.665-5.264,30-13.585c7.336,8.321,18.062,13.585,30,13.585
			c11.939,0,22.664-5.264,29.999-13.585c7.337,8.321,18.063,13.585,30.001,13.585c11.939,0,22.664-5.264,30-13.585
			c7.336,8.321,18.062,13.585,30,13.585c11.939,0,22.664-5.264,30-13.585c7.336,8.32,18.061,13.585,30,13.585V492z M486.001,260
			c0,11.028-8.972,20-20,20s-20-8.972-20-20v-80h20c11.028,0,20,8.972,20,20V260z"/>
	</g>
</g>
<g>
	<g>
		<path d="M416.001,332h-140c-16.542,0-30,13.458-30,30v40c0,16.542,13.458,30,30,30h140c16.542,0,30-13.458,30-30v-40
			C446.001,345.458,432.544,332,416.001,332z M426.001,402c0,5.514-4.486,10-10,10h-140c-5.514,0-10-4.486-10-10v-40
			c0-5.514,4.486-10,10-10h140c5.514,0,10,4.486,10,10V402z"/>
	</g>
</g>
<g>
	<g>
		<path d="M132,116.977h-0.324c-5.522,0-10,4.478-10,10c0,5.522,4.478,10,10,10H132c5.523,0,10-4.477,10-10
			S137.523,116.977,132,116.977z"/>
	</g>
</g>
<g>
	<g>
		<path d="M380.324,116.977h-0.323c-5.522,0-10,4.478-10,10c0,5.522,4.478,10,10,10h0.323c5.522,0,10-4.477,10-10
			S385.846,116.977,380.324,116.977z"/>
	</g>
</g>
<g>
</g>
<g>
</g>
<g>
</g>
<g>
</g>
<g>
</g>
<g>
</g>
<g>
</g>
<g>
</g>
<g>
</g>
<g>
</g>
<g>
</g>
<g>
</g>
<g>
</g>
<g>
</g>
<g>
</g>
</svg>
