<?xml version="1.0" encoding="iso-8859-1"?>
<!-- Generator: Adobe Illustrator 19.0.0, SVG Export Plug-In . SVG Version: 6.00 Build 0)  -->
<svg version="1.1" id="Layer_1" xmlns="http://www.w3.org/2000/svg" xmlns:xlink="http://www.w3.org/1999/xlink" x="0px" y="0px"
	 viewBox="0 0 229.957 229.957" style="enable-background:new 0 0 229.957 229.957;" xml:space="preserve">
<g>
	<g>
		<g>
			<path d="M104.706,129.12h24.242v-16.162h16.162V88.715h-16.162V72.554h-24.242v16.162H88.544v24.242h16.162V129.12z
				 M96.625,104.877v-8.081h16.162V80.635h8.081v16.162h16.161v8.08h-16.162v16.162h-8.081v-16.162H96.625z"/>
			<rect x="23.897" y="137.2" width="28.283" height="8.081"/>
			<rect x="23.897" y="153.362" width="28.283" height="8.081"/>
			<rect x="23.897" y="169.523" width="28.283" height="8.081"/>
			<rect x="177.433" y="137.2" width="28.283" height="8.081"/>
			<rect x="177.433" y="153.362" width="28.283" height="8.081"/>
			<rect x="177.433" y="169.523" width="28.283" height="8.081"/>
			<path d="M221.877,197.807L221.877,197.807v-76.768h-52.525V32.15h20.202v-8.081h-20.202H60.261H40.059v8.081h20.202v88.889H7.736
				v76.768H0v8.081h7.736h52.525h8.081h24.242h44.444h24.242h8.081h52.525h8.081v-8.081H221.877z M60.261,197.806H15.817v-68.687
				h44.444V197.806z M128.948,197.806h-28.283v-32.323h28.283V197.806z M161.271,121.039v76.768h-24.242v-0.001v-40.404H92.584
				v40.404H68.342v-76.767V32.15h92.929V121.039z M213.796,197.806h-44.444v-68.687h44.444V197.806z"/>
		</g>
	</g>
</g>
<g>
</g>
<g>
</g>
<g>
</g>
<g>
</g>
<g>
</g>
<g>
</g>
<g>
</g>
<g>
</g>
<g>
</g>
<g>
</g>
<g>
</g>
<g>
</g>
<g>
</g>
<g>
</g>
<g>
</g>
</svg>
